<?xml version="1.0" encoding="UTF-8"?>
<svg id="_图层_2" data-name="图层 2" xmlns="http://www.w3.org/2000/svg" viewBox="0 0 296 256">
  <defs>
    <style>
      .cls-1 {
        fill: #fff;
      }
    </style>
  </defs>
  <g id="_图层_1-2" data-name="图层 1">
    <g>
      <path class="cls-1" d="M0,256V0h296v256H0ZM92.82,233.04l-19.47,8.66c1.15.73,1.98.64,3.29.38l178.72-.06-.04-208.49-212.74.02.11,171.24c4.05-8.76,6.16-17.78,9.26-26.73V42.64s194.07.02,194.07.02v190.34s-153.21.05-153.21.05ZM91.51,158.21c-8.58,7.11-16.75,13.25-25.97,18.23-2.21,1.19-3.74,2.62-4.82,4.98l-17.95,54.92c-.54,1.66.41,3.55,1.3,4.48.99,1.03,3.42,1.81,4.91,1.17l30.72-13.34,22.16-9.78c2.65-1.17,4.37-2.89,5.55-5.59,4.31-9.88,9.16-19.17,15.08-28.4,10.43,3.91,16.67,11.02,25.94,16.01,16.71,9,37.17,2.79,46.18-13.84,3.08-5.69,5.18-11.87,5.3-18.5l.22-12.16c7.58-2.2,11.9-8.67,11.93-16.5l12.15,5.34c2.17.96,4.43.93,5.98-.82,1.35-1.53,1.55-3.59.59-5.72l-31.28-69.69c-.75-1.67-3.17-2.52-4.48-2.27-1.57.3-3.07,1.3-3.83,2.98l-31.52,70.42c-.74,1.64.71,3.91,1.69,4.71,1.31,1.08,3.49,1.3,5.06.62l12.52-5.44c-.05,7.84,4.7,13.92,11.88,16.52l.24,3.93c.42,7.06-2.99,13.13-9.12,15.87s-13.35.98-18.12-4.21c-3.21-3.5-6.22-7.03-9.6-10.34-5.99-5.86-14.36-6.51-21.45-1.88-5.38,3.51-9.51,8.49-13.5,13.44-6.08-3.58-11.1-8.25-15.41-13.96,9.77-8.84,18.42-18.36,25.66-29.26,2.33-3.5,4.06-7.09,5.81-10.89,7.61-16.55,4.9-36.49-12.46-45.21-13.1-6.58-28.56-3.49-38.55,7.35-18.75,20.34-6.59,56.44,7.19,76.82Z"/>
      <path d="M91.51,158.21c-13.78-20.38-25.94-56.47-7.19-76.82,9.98-10.83,25.45-13.92,38.55-7.35,17.36,8.72,20.08,28.65,12.46,45.21-1.75,3.8-3.48,7.38-5.81,10.89-7.24,10.9-15.89,20.41-25.66,29.26,4.3,5.71,9.33,10.38,15.41,13.96,3.99-4.95,8.12-9.93,13.5-13.44,7.09-4.63,15.46-3.98,21.45,1.88,3.38,3.31,6.39,6.84,9.6,10.34,4.77,5.19,11.81,7.03,18.12,4.21s9.54-8.81,9.12-15.87l-.24-3.93c-7.18-2.6-11.93-8.68-11.88-16.52l-12.52,5.44c-1.57.68-3.75.46-5.06-.62-.98-.81-2.42-3.07-1.69-4.71l31.52-70.42c.76-1.69,2.26-2.69,3.83-2.98,1.31-.25,3.73.61,4.48,2.27l31.28,69.69c.95,2.12.76,4.18-.59,5.72-1.55,1.75-3.8,1.77-5.98.82l-12.15-5.34c-.04,7.83-4.35,14.3-11.93,16.5l-.22,12.16c-.12,6.63-2.22,12.81-5.3,18.5-9.01,16.63-29.47,22.84-46.18,13.84-9.27-4.99-15.51-12.11-25.94-16.01-5.92,9.22-10.77,18.51-15.08,28.4-1.18,2.7-2.9,4.42-5.55,5.59l-22.16,9.78-30.72,13.34c-1.49.65-3.92-.13-4.91-1.17-.89-.93-1.84-2.82-1.3-4.48l17.95-54.92c1.08-2.36,2.61-3.79,4.82-4.98,9.22-4.98,17.38-11.12,25.97-18.23ZM128.88,93.54c-2.71-7.93-10.41-13.19-18.77-13.68-11.43-.68-21.46,6.71-24.65,17.58-5.03,17.17,3.36,40.34,13.12,54.49,14.33-13.55,37.25-38.04,30.3-58.39ZM191.07,124.63l-.15-31.91-17.63,39.52c6.84-2.63,12.13-4.98,17.78-7.61ZM217.88,132.31l-17.54-38.8-.28,31.19,17.82,7.62ZM202.74,140.72c0-3.99-3.23-7.22-7.22-7.22s-7.22,3.23-7.22,7.22,3.23,7.22,7.22,7.22,7.22-3.23,7.22-7.22ZM80.03,208.17l-14.67,16.7,33.22-14.42c4.51-10.26,9.54-19.84,15.6-29.62-6.59-4.04-12.24-8.93-17.31-15.15-8.84,7.34-17.85,13.78-27.71,19.31l-10.73,33.24,15.1-16.27c-.47-4.78,2.75-8.32,7.21-8.49,4.21-.16,7.79,3.3,7.54,7.66-.24,4.12-3.75,7.36-8.24,7.05ZM185.11,185.06c-6.19,2.14-11.27,2.49-16.84.6-4.91-1.77-9.02-5.01-12.55-8.87l-7.65-8.34c-6.88-7.5-15.74,3.21-20.18,8.68,3.77,1.92,7.13,3.67,10.47,6l11.79,8.2c11.48,7.99,26.97,5.39,34.95-6.27Z"/>
      <path d="M92.82,233.04l153.21-.05V42.66s-194.07-.02-194.07-.02v135.43c-3.09,8.95-5.2,17.97-9.25,26.73l-.11-171.24,212.74-.02.04,208.49-178.72.06c-1.32.26-2.14.35-3.29-.38l19.47-8.66Z"/>
      <path class="cls-1" d="M128.88,93.54c6.96,20.35-15.96,44.83-30.3,58.39-9.76-14.15-18.15-37.31-13.12-54.49,3.18-10.88,13.22-18.26,24.65-17.58,8.36.5,16.06,5.75,18.77,13.68Z"/>
      <path class="cls-1" d="M80.03,208.17c4.48.31,7.99-2.93,8.24-7.05.25-4.36-3.33-7.82-7.54-7.66-4.45.17-7.68,3.71-7.21,8.49l-15.1,16.27,10.73-33.24c9.87-5.53,18.88-11.97,27.71-19.31,5.07,6.23,10.72,11.11,17.31,15.15-6.06,9.78-11.09,19.36-15.6,29.62l-33.22,14.42,14.67-16.7Z"/>
      <path class="cls-1" d="M185.11,185.06c-7.98,11.65-23.47,14.26-34.95,6.27l-11.79-8.2c-3.34-2.33-6.7-4.07-10.47-6,4.44-5.47,13.3-16.18,20.18-8.68l7.65,8.34c3.53,3.87,7.64,7.1,12.55,8.87,5.57,1.89,10.65,1.55,16.84-.6Z"/>
      <path class="cls-1" d="M191.07,124.63c-5.65,2.63-10.94,4.97-17.78,7.61l17.63-39.52.15,31.91Z"/>
      <polygon class="cls-1" points="217.88 132.31 200.06 124.7 200.33 93.51 217.88 132.31"/>
      <circle class="cls-1" cx="195.52" cy="140.72" r="7.22"/>
    </g>
  </g>
</svg>